:version 1.10
:name ASF
:units
  mass 1
  length 1
  angle deg
:documentation
  ASF file generated by Kaydara
:root
  axis xyz
  order  tx ty tz rx ry rz
  position 0 0 0
  orientation 0 0 0
:bonedata
  begin
    id 1
    name RightUpLegDummy
    direction -1 2.30186e-007 8.31532e-007
    length 4.04083
    axis 0 0 0 xyz
  end
  begin
    id 2
    name RightUpLeg
    direction -0.000919234 -0.999985 0.00544864
    length 17.4221
    axis -3.80308 -0.00076134 -0.0523649 xyz
    dof rx ry rz
  end
  begin
    id 3
    name RightLeg
    direction -0.000919271 -0.999984 -0.00555045
    length 17.1239
    axis 4.00314 0.0181274 -0.183583 xyz
    dof rx ry rz
  end
  begin
    id 4
    name RightFoot
    direction -2.57843e-005 -4.04509e-007 1
    length 6.72091
    axis 8.18909e-005 -0.122003 -0.403008 xyz
    dof rx ry rz
  end
  begin
    id 5
    name RightToes
    direction 0.00116825 -0.014069 0.9999
    length 3.85082
    axis 0.000514414 0.540638 -0.356797 xyz
    dof rx ry rz
  end
  begin
    id 6
    name SpineDummy
    direction 0.0168869 0.966876 -0.254689
    length 6.99894
    axis 0 0 0 xyz
  end
  begin
    id 7
    name Spine
    direction -0.0132008 0.999903 0.00446247
    length 11.1999
    axis -0.00148109 0.00725429 0.756411 xyz
    dof rx ry rz
  end
  begin
    id 8
    name Spine1
    direction 0 0 0
    length 0
    axis -0.000934958 0.0245693 1.46543 xyz
    dof rx ry rz
  end
  begin
    id 9
    name HEadDummy
    direction -0.0255732 0.999672 0.00128215
    length 3.43865
    axis -0.000934958 0.0245693 1.46543 xyz
  end
  begin
    id 10
    name HEad
    direction -0.0472656 0.980052 0.19304
    length 5.12695
    axis -0.000934954 0.0245693 1.46543 xyz
    dof rx ry rz
  end
  begin
    id 11
    name LeftShoulder1Dummy
    direction 0.953098 0.301717 -0.023914
    length 3.68488
    axis -0.000934958 0.0245693 1.46543 xyz
  end
  begin
    id 12
    name LeftShoulder1
    direction 0.962466 0.271167 0.0112566
    length 3.13809
    axis -0.000934958 0.0245693 1.46543 xyz
    dof rx ry rz
  end
  begin
    id 13
    name LeftArm
    direction 0.999943 0.00455037 -0.00961766
    length 11.3419
    axis -23.1648 0.685459 1.22814 xyz
    dof rx ry rz
  end
  begin
    id 14
    name LeftForeArm
    direction 0.999332 0.0131969 0.0340885
    length 8.70632
    axis -9.90633 0.618216 0.0826942 xyz
    dof rx ry rz
  end
  begin
    id 15
    name LeftHand
    direction 0.994373 -0.0366703 0.0993905
    length 5.32135
    axis 0.00675269 0.680415 0.445699 xyz
    dof rx ry rz
  end
  begin
    id 16
    name RightShoulderDummy
    direction -0.967298 0.252589 -0.0230903
    length 3.68488
    axis -0.000934958 0.0245693 1.46543 xyz
  end
  begin
    id 17
    name RightShoulder
    direction -0.975062 0.221602 0.0120823
    length 3.13809
    axis 0.216257 0.0246515 1.45863 xyz
    dof rx ry rz
  end
  begin
    id 18
    name RightArm
    direction -0.99886 -0.00851186 -0.0469687
    length 10.3947
    axis -23.196 0.23503 -0.532632 xyz
    dof rx ry rz
  end
  begin
    id 19
    name RightForeArm
    direction -0.99909 0.00114866 0.0426317
    length 8.68355
    axis -9.91764 -0.134943 0.610517 xyz
    dof rx ry rz
  end
  begin
    id 20
    name RightHand
    direction -0.992888 -0.0489538 0.10852
    length 5.28593
    axis -0.00275396 -0.197403 0.246414 xyz
    dof rx ry rz
  end
  begin
    id 21
    name LeftUpLegDummy
    direction 1 -2.30186e-007 -8.31532e-007
    length 4.04083
    axis 0 0 0 xyz
  end
  begin
    id 22
    name LeftUpLeg
    direction -0.000920097 -1 2.79241e-006
    length 17.4221
    axis -3.48782 0.00143434 -0.0532288 xyz
    dof rx ry rz
  end
  begin
    id 23
    name LeftLeg
    direction -0.000920097 -1 2.7912e-006
    length 17.1239
    axis 3.68162 -0.00806512 -0.0529896 xyz
    dof rx ry rz
  end
  begin
    id 24
    name LeftFoot
    direction -2.57845e-005 -3.987e-007 1
    length 6.72091
    axis 3.02372e-005 -0.00147829 -0.214229 xyz
    dof rx ry rz
  end
  begin
    id 25
    name LeftToes
    direction 0.00813577 -0.00488255 0.999955
    length 3.85048
    axis 3.89895e-005 -0.0014783 -0.214229 xyz
    dof rx ry rz
  end
:hierarchy
  begin
    root RightUpLegDummy SpineDummy LeftUpLegDummy
    RightUpLegDummy RightUpLeg
    RightUpLeg RightLeg
    RightLeg RightFoot
    RightFoot RightToes
    SpineDummy Spine
    Spine Spine1
    Spine1 HEadDummy LeftShoulder1Dummy RightShoulderDummy
    HEadDummy HEad
    LeftShoulder1Dummy LeftShoulder1
    LeftShoulder1 LeftArm
    LeftArm LeftForeArm
    LeftForeArm LeftHand
    RightShoulderDummy RightShoulder
    RightShoulder RightArm
    RightArm RightForeArm
    RightForeArm RightHand
    LeftUpLegDummy LeftUpLeg
    LeftUpLeg LeftLeg
    LeftLeg LeftFoot
    LeftFoot LeftToes
  end

:SAMPLES-PER-SECOND 30
:FULLY-SPECIFIED
:DEGREES
63
root  -4.90508 34.5771 -33.1476 -170.727 -1.53633 -179.023
RightUpLeg  -6.94186 -18.7089 -1.68404
RightLeg  4.41394 -4.65987 -0.0578415
RightFoot  6.36473 0.0500862 -0.353334
RightToes  -27.2713 -0.124333 -0.23172
Spine  -2.30047 -0.133667 0.694138
Spine1  -4.66675 -0.167767 1.88033
HEad  -53.6577 3.51281 5.98964
LeftShoulder1  -1.94126e-019 -3.10601e-018 -2.51263e-017
LeftArm  -12.7635 24.9831 -80.2421
LeftForeArm  33.8453 -19.8491 -3.1239
LeftHand  -0.517446 -2.00512 8.31524
RightShoulder  -4.96962e-017 0 -2.36833e-017
RightArm  -34.5097 -22.6779 72.5381
RightForeArm  58.9436 13.3607 1.31492
RightHand  -0.438339 -0.280602 -9.95233
LeftUpLeg  -7.79317 3.38602 7.58265
LeftLeg  4.96153 11.0555 0.244751
LeftFoot  8.69415 -0.12073 1.78391
LeftToes  -28.3936 2.25955e-006 -3.67304e-008
64
root  -4.93478 34.5728 -33.158 -170.753 -1.29298 -179.046
RightUpLeg  -6.98082 -18.53 -1.77857
RightLeg  4.51049 -4.61182 -0.0649942
RightFoot  6.33657 0.0498608 -0.346711
RightToes  -27.2369 -0.125058 -0.23231
Spine  -2.30976 -0.161262 0.738403
Spine1  -4.68545 -0.223163 1.96454
HEad  -51.4076 3.73764 5.60434
LeftShoulder1  -1.94126e-019 -3.10601e-018 -2.51263e-017
LeftArm  -12.3168 24.8244 -80.2781
LeftForeArm  33.8287 -20.6262 -3.22544
LeftHand  -0.519802 -2.29893 8.05389
RightShoulder  -4.96962e-017 0 -2.36833e-017
RightArm  -34.5569 -22.7268 72.5492
RightForeArm  59.066 13.2919 1.32343
RightHand  -0.437247 -0.273707 -9.9661
LeftUpLeg  -7.71302 3.49754 7.49984
LeftLeg  5.02344 11.1644 0.259122
LeftFoot  8.59111 -0.119622 1.77928
LeftToes  -28.4109 2.25955e-006 -3.67304e-008
65
root  -4.96217 34.5679 -33.1702 -170.792 -1.02039 -179.062
RightUpLeg  -7.0264 -18.3383 -1.87023
RightLeg  4.63741 -4.5349 -0.0739256
RightFoot  6.31445 0.0493911 -0.337345
RightToes  -27.3434 -0.125745 -0.232795
Spine  -2.3366 -0.192719 0.791604
Spine1  -4.7396 -0.28503 2.06684
HEad  -48.6855 3.88575 5.10963
LeftShoulder1  -1.94126e-019 -3.10601e-018 -2.51263e-017
LeftArm  -12.0423 24.7952 -80.3922
LeftForeArm  33.6858 -21.3295 -3.31234
LeftHand  -0.513496 -2.07495 8.18113
RightShoulder  -4.96962e-017 0 -2.36833e-017
RightArm  -34.703 -22.7757 72.5624
RightForeArm  59.1686 13.2009 1.3351
RightHand  -0.434121 -0.348215 -10.035
LeftUpLeg  -7.6257 3.69849 7.4244
LeftLeg  5.10809 11.2173 0.2768
LeftFoot  8.44956 -0.11753 1.75793
LeftToes  -28.2658 2.25955e-006 -3.67304e-008
66
root  -4.98785 34.5669 -33.1815 -170.858 -0.728363 -179.105
RightUpLeg  -7.01337 -18.1659 -1.99235
RightLeg  4.69409 -4.43816 -0.0767209
RightFoot  6.29921 0.0487473 -0.32601
RightToes  -27.3573 -0.126383 -0.233261
Spine  -2.35177 -0.224304 0.844695
Spine1  -4.77011 -0.347758 2.1746
HEad  -45.9977 4.00365 4.45165
LeftShoulder1  -1.94126e-019 -3.10601e-018 -2.51263e-017
LeftArm  -11.8062 24.791 -80.4878
LeftForeArm  33.4791 -21.7311 -3.35945
LeftHand  -0.529543 -2.1864 8.31451
RightShoulder  -4.96962e-017 0 -2.36833e-017
RightArm  -35.0874 -22.7978 72.5733
RightForeArm  59.13 13.1275 1.34513
RightHand  -0.439951 -0.180614 -9.83349
LeftUpLeg  -7.48408 3.94036 7.32169
LeftLeg  5.14164 11.247 0.28407
LeftFoot  8.37994 -0.116251 1.74828
LeftToes  -28.3514 2.25955e-006 -3.67304e-008
67
root  -5.01197 34.567 -33.1884 -170.927 -0.47139 -179.142
RightUpLeg  -7.00292 -17.9628 -2.10147
RightLeg  4.75619 -4.40409 -0.0808919
RightFoot  6.29966 0.0486259 -0.322428
RightToes  -27.4437 -0.126956 -0.233711
Spine  -2.35722 -0.266161 0.88622
Spine1  -4.78133 -0.431335 2.26436
HEad  -43.5844 4.26314 3.92649
LeftShoulder1  -1.94126e-019 -3.10601e-018 -2.51263e-017
LeftArm  -11.6515 24.8637 -80.5491
LeftForeArm  33.3761 -22.0431 -3.39477
LeftHand  -0.517948 -2.19021 8.13318
RightShoulder  -4.96962e-017 0 -2.36833e-017
RightArm  -35.2628 -22.8113 72.6525
RightForeArm  59.1861 13.0494 1.35503
RightHand  -0.439626 -0.17788 -9.81596
LeftUpLeg  -7.33905 4.06997 7.23315
LeftLeg  5.14764 11.3515 0.287864
LeftFoot  8.29844 -0.115435 1.74774
LeftToes  -28.2861 2.25955e-006 -3.67304e-008
68
root  -5.03425 34.5675 -33.1935 -171.034 -0.183319 -179.191
RightUpLeg  -7.00143 -17.7035 -2.23487
RightLeg  4.90139 -4.37796 -0.0914824
RightFoot  6.26816 0.0483803 -0.317125
RightToes  -27.5551 -0.127453 -0.234143
Spine  -2.30982 -0.290525 0.922115
Spine1  -4.6867 -0.481772 2.34742
HEad  -41.6902 4.65427 3.44015
LeftShoulder1  -1.94126e-019 -3.10601e-018 -2.51263e-017
LeftArm  -11.6299 24.8798 -80.709
LeftForeArm  33.299 -22.1418 -3.40318
LeftHand  -0.509993 -2.09225 8.28542
RightShoulder  -4.96962e-017 0 -2.36833e-017
RightArm  -35.0219 -22.8718 72.733
RightForeArm  58.9789 13.1727 1.34021
RightHand  -0.44069 -0.148611 -9.75392
LeftUpLeg  -7.12873 4.27369 7.13271
LeftLeg  5.11123 11.4101 0.28213
LeftFoot  8.19717 -0.113717 1.73659
LeftToes  -27.9993 2.25955e-006 -3.67304e-008
69
root  -5.05273 34.568 -33.1934 -171.112 0.0944214 -179.205
RightUpLeg  -7.04447 -17.4008 -2.31405
RightLeg  5.06253 -4.40586 -0.104437
RightFoot  6.23822 0.0485661 -0.31781
RightToes  -27.4605 -0.127902 -0.234559
Spine  -2.258 -0.305823 0.952389
Spine1  -4.58362 -0.515418 2.413
HEad  -40.3135 5.1296 3.07072
LeftShoulder1  -1.94126e-019 -3.10601e-018 -2.51263e-017
LeftArm  -11.5133 24.9532 -80.788
LeftForeArm  33.2436 -22.1315 -3.39825
LeftHand  -0.511692 -2.06367 8.29141
RightShoulder  -4.96962e-017 0 -2.36833e-017
RightArm  -34.6663 -23.0031 72.8488
RightForeArm  58.8294 13.348 1.31752
RightHand  -0.439202 -0.123217 -9.77949
LeftUpLeg  -6.99383 4.42959 7.07435
LeftLeg  5.12911 11.5316 0.288677
LeftFoot  8.17884 -0.113485 1.75054
LeftToes  -28.1888 2.25955e-006 -3.67304e-008
70
root  -5.06864 34.5678 -33.199 -171.177 0.402237 -179.239
RightUpLeg  -7.06138 -17.207 -2.40437
RightLeg  5.14073 -4.29784 -0.107723
RightFoot  6.23446 0.0479226 -0.306232
RightToes  -27.4618 -0.128344 -0.234957
Spine  -2.22308 -0.312141 0.971126
Spine1  -4.51395 -0.532713 2.45736
HEad  -39.2533 5.69736 2.69235
LeftShoulder1  -1.94126e-019 -3.10601e-018 -2.51263e-017
LeftArm  -11.4366 25.0838 -80.8651
LeftForeArm  33.2391 -21.8207 -3.35739
LeftHand  -0.51452 -1.98752 8.28776
RightShoulder  -4.96962e-017 0 -2.36833e-017
RightArm  -34.3286 -23.1437 72.9245
RightForeArm  58.6563 13.4187 1.30922
RightHand  -0.439402 -0.149557 -9.73875
LeftUpLeg  -6.84506 4.50948 6.9987
LeftLeg  5.13622 11.7187 0.29475
LeftFoot  8.12146 -0.113354 1.76657
LeftToes  -27.9669 2.25955e-006 -3.67304e-008
71
root  -5.08111 34.5662 -33.2069 -171.198 0.675323 -179.257
RightUpLeg  -7.08302 -17.1251 -2.46054
RightLeg  5.1469 -4.11943 -0.103674
RightFoot  6.28554 0.0471187 -0.291719
RightToes  -27.5994 -0.128776 -0.235339
Spine  -2.20397 -0.320256 0.990815
Spine1  -4.47607 -0.554188 2.50019
HEad  -38.4054 6.32499 2.38369
LeftShoulder1  -1.94126e-019 -3.10601e-018 -2.51263e-017
LeftArm  -11.4529 25.2383 -80.9505
LeftForeArm  33.3384 -21.2606 -3.28894
LeftHand  -0.518559 -2.00566 8.33213
RightShoulder  -4.96962e-017 0 -2.36833e-017
RightArm  -34.2066 -23.2736 72.9429
RightForeArm  58.6666 13.3711 1.31569
RightHand  -0.44008 -0.10221 -9.69378
LeftUpLeg  -6.77413 4.65165 6.94258
LeftLeg  5.19688 11.8429 0.310286
LeftFoot  8.04352 -0.112334 1.76784
LeftToes  -27.8015 2.25955e-006 -3.67304e-008
72
root  -5.09243 34.5627 -33.2203 -171.179 0.966522 -179.264
RightUpLeg  -7.09212 -17.0265 -2.49319
RightLeg  5.06921 -3.94931 -0.0940244
RightFoot  6.32453 0.0463562 -0.276926
RightToes  -27.4738 -0.129199 -0.235704
Spine  -2.20822 -0.318357 1.01551
Spine1  -4.48471 -0.555447 2.54963
HEad  -37.6627 6.97463 2.08082
LeftShoulder1  -1.94126e-019 -3.10601e-018 -2.51263e-017
LeftArm  -11.5806 25.4059 -81.0554
LeftForeArm  33.6288 -20.4235 -3.18471
LeftHand  -0.534345 -2.08948 8.48968
RightShoulder  -4.96962e-017 0 -2.36833e-017
RightArm  -34.2067 -23.4012 72.892
RightForeArm  58.8089 13.2519 1.33083
RightHand  -0.439248 -0.110279 -9.69385
LeftUpLeg  -6.75344 4.9261 6.89432
LeftLeg  5.29969 11.8572 0.331783
LeftFoot  7.94673 -0.110156 1.74872
LeftToes  -27.709 2.25955e-006 -3.67304e-008
73
root  -5.10297 34.5578 -33.2299 -171.145 1.18703 -179.265
RightUpLeg  -7.10307 -17.0181 -2.5143
RightLeg  4.96062 -3.75323 -0.0822267
RightFoot  6.43591 0.0458069 -0.264075
RightToes  -27.7427 -0.129612 -0.236053
Spine  -2.2129 -0.318384 1.03182
Spine1  -4.49405 -0.565448 2.58069
HEad  -37.0829 7.48684 2.01418
LeftShoulder1  -1.94126e-019 -3.10601e-018 -2.51263e-017
LeftArm  -11.7553 25.5359 -81.1353
LeftForeArm  33.9224 -19.5321 -3.07609
LeftHand  -0.532142 -2.09917 8.44527
RightShoulder  -4.96962e-017 0 -2.36833e-017
RightArm  -34.2415 -23.5344 72.8218
RightForeArm  58.8901 13.18 1.3399
RightHand  -0.437681 -0.131925 -9.69707
LeftUpLeg  -6.76926 5.12557 6.85252
LeftLeg  5.40442 11.8869 0.354178
LeftFoot  7.86572 -0.108576 1.73505
LeftToes  -27.7003 2.25955e-006 -3.67304e-008
74
root  -5.10987 34.5553 -33.2389 -171.105 1.36166 -179.263
RightUpLeg  -7.15048 -16.9616 -2.52503
RightLeg  4.9382 -3.64952 -0.078512
RightFoot  6.45488 0.0455656 -0.254289
RightToes  -27.7467 -0.130014 -0.236386
Spine  -2.22211 -0.319162 1.03764
Spine1  -4.51209 -0.572813 2.59231
HEad  -36.708 7.89646 1.94757
LeftShoulder1  -1.94126e-019 -3.10601e-018 -2.51263e-017
LeftArm  -12.1146 25.6295 -81.2119
LeftForeArm  34.2309 -18.5113 -2.94522
LeftHand  -0.551453 -2.11127 8.73108
RightShoulder  -4.96962e-017 0 -2.36833e-017
RightArm  -34.1274 -23.7246 72.7504
RightForeArm  58.6818 13.2437 1.33303
RightHand  -0.431397 -0.141131 -9.57409
LeftUpLeg  -6.79064 5.3005 6.82434
LeftLeg  5.48293 11.888 0.370388
LeftFoot  7.80794 -0.107421 1.7227
LeftToes  -27.6871 2.25955e-006 -3.67304e-008
75
root  -5.11496 34.556 -33.2411 -171.073 1.47414 -179.26
RightUpLeg  -7.19513 -16.9425 -2.52251
RightLeg  4.92884 -3.54215 -0.0756062
RightFoot  6.48361 0.045432 -0.244473
RightToes  -27.7858 -0.130404 -0.236703
Spine  -2.22016 -0.320838 1.03395
Spine1  -4.50729 -0.580052 2.58732
HEad  -36.816 8.15775 1.95991
LeftShoulder1  -1.94126e-019 -3.10601e-018 -2.51263e-017
LeftArm  -12.5026 25.6997 -81.2661
LeftForeArm  34.5113 -17.5836 -2.82527
LeftHand  -0.554949 -2.09288 8.80537
RightShoulder  -4.96962e-017 0 -2.36833e-017
RightArm  -33.7678 -23.9472 72.6949
RightForeArm  58.3508 13.4922 1.30182
RightHand  -0.426791 -0.105179 -9.41109
LeftUpLeg  -6.79651 5.37927 6.81366
LeftLeg  5.49686 11.9222 0.374319
LeftFoot  7.78426 -0.107512 1.72297
LeftToes  -27.6884 2.25955e-006 -3.67304e-008
